<!DOCTYPE svg PUBLIC "-//W3C//DTD SVG 1.1//EN" "http://www.w3.org/Graphics/SVG/1.1/DTD/svg11.dtd">
<!-- Uploaded to: SVG Repo, www.svgrepo.com, Transformed by: SVG Repo Mixer Tools -->
<svg width="800px" height="800px" viewBox="0 0 24 24" fill="none" xmlns="http://www.w3.org/2000/svg" stroke="">
<g id="SVGRepo_bgCarrier" stroke-width="0"/>
<g id="SVGRepo_tracerCarrier" stroke-linecap="round" stroke-linejoin="round"/>
<g id="SVGRepo_iconCarrier"> <path fill-rule="evenodd" clip-rule="evenodd" d="M10.7784 1C10.3231 1 9.92838 1.31506 9.82748 1.75902L8.63635 7H5C4.44772 7 4 7.44772 4 8C4 8.55228 4.44772 9 5 9H8.1818L6.81817 15H3C2.44772 15 2 15.4477 2 16C2 16.5523 2.44772 17 3 17H6.36362L5.27072 21.8088C5.13204 22.419 5.59584 23 6.22161 23C6.6769 23 7.07159 22.6849 7.17249 22.241L8.36362 17H13.3636L12.2707 21.8088C12.132 22.419 12.5958 23 13.2216 23C13.6769 23 14.0716 22.6849 14.1725 22.241L15.3636 17H19C19.5523 17 20 16.5523 20 16C20 15.4477 19.5523 15 19 15H15.8182L17.1818 9H21C21.5523 9 22 8.55228 22 8C22 7.44772 21.5523 7 21 7H17.6364L18.7292 2.19124C18.8679 1.58104 18.4041 1 17.7784 1C17.3231 1 16.9284 1.31506 16.8275 1.75902L15.6364 7H10.6363L11.7292 2.19124C11.8679 1.58104 11.4041 1 10.7784 1ZM13.8182 15L15.1818 9H10.1818L8.81817 15H13.8182Z" fill="#858b94"/> </g>
</svg>